<svg xmlns="http://www.w3.org/2000/svg" width="854" height="197" viewBox="0 0 854 197" font-family="ui-monospace,SFMono-Regular,'Cascadia Code',Menlo,Consolas,monospace" font-size="11">
<style>.d{opacity:0;animation:drop .45s ease-out forwards}@keyframes drop{from{opacity:0;transform:translateY(-8px)}to{opacity:1;transform:none}}.f{opacity:0;animation:fade .6s ease-out 1.75s forwards}@keyframes fade{to{opacity:1}}</style>
<rect width="854" height="197" rx="8" fill="#0d1117" stroke="#30363d"/>
<line x1="1" y1="28" x2="853" y2="28" stroke="#30363d"/>
<circle cx="16" cy="14" r="5" fill="#ff5f56"/>
<circle cx="34" cy="14" r="5" fill="#ffbd2e"/>
<circle cx="52" cy="14" r="5" fill="#27c93f"/>
<text x="427" y="18" text-anchor="middle" fill="#8b949e">adi@github: ~/contributions --last-year</text>
<text class="f" x="46" y="52" fill="#8b949e">Aug</text>
<text class="f" x="121" y="52" fill="#8b949e">Oct</text>
<text class="f" x="181" y="52" fill="#8b949e">Nov</text>
<text class="f" x="256" y="52" fill="#8b949e">Dec</text>
<text class="f" x="316" y="52" fill="#8b949e">Jan</text>
<text class="f" x="376" y="52" fill="#8b949e">Feb</text>
<text class="f" x="436" y="52" fill="#8b949e">Mar</text>
<text class="f" x="511" y="52" fill="#8b949e">Apr</text>
<text class="f" x="571" y="52" fill="#8b949e">May</text>
<text class="f" x="646" y="52" fill="#8b949e">Jun</text>
<text class="f" x="706" y="52" fill="#8b949e">Jul</text>
<text class="f" x="766" y="52" fill="#8b949e">Aug</text>
<text class="f" x="16" y="83" fill="#8b949e">Mon</text>
<text class="f" x="16" y="113" fill="#8b949e">Wed</text>
<text class="f" x="16" y="143" fill="#8b949e">Fri</text>
<rect class="d" style="animation-delay:0.000s" x="46" y="58" width="12" height="12" rx="3" fill="#161b22"/>
<rect class="d" style="animation-delay:0.022s" x="46" y="73" width="12" height="12" rx="3" fill="#161b22"/>
<rect class="d" style="animation-delay:0.044s" x="46" y="88" width="12" height="12" rx="3" fill="#161b22"/>
<rect class="d" style="animation-delay:0.066s" x="46" y="103" width="12" height="12" rx="3" fill="#161b22"/>
<rect class="d" style="animation-delay:0.088s" x="46" y="118" width="12" height="12" rx="3" fill="#161b22"/>
<rect class="d" style="animation-delay:0.110s" x="46" y="133" width="12" height="12" rx="3" fill="#161b22"/>
<rect class="d" style="animation-delay:0.132s" x="46" y="148" width="12" height="12" rx="3" fill="#161b22"/>
<rect class="d" style="animation-delay:0.022s" x="61" y="58" width="12" height="12" rx="3" fill="#161b22"/>
<rect class="d" style="animation-delay:0.044s" x="61" y="73" width="12" height="12" rx="3" fill="#161b22"/>
<rect class="d" style="animation-delay:0.066s" x="61" y="88" width="12" height="12" rx="3" fill="#161b22"/>
<rect class="d" style="animation-delay:0.088s" x="61" y="103" width="12" height="12" rx="3" fill="#161b22"/>
<rect class="d" style="animation-delay:0.110s" x="61" y="118" width="12" height="12" rx="3" fill="#161b22"/>
<rect class="d" style="animation-delay:0.132s" x="61" y="133" width="12" height="12" rx="3" fill="#161b22"/>
<rect class="d" style="animation-delay:0.154s" x="61" y="148" width="12" height="12" rx="3" fill="#161b22"/>
<rect class="d" style="animation-delay:0.044s" x="76" y="58" width="12" height="12" rx="3" fill="#161b22"/>
<rect class="d" style="animation-delay:0.066s" x="76" y="73" width="12" height="12" rx="3" fill="#161b22"/>
<rect class="d" style="animation-delay:0.088s" x="76" y="88" width="12" height="12" rx="3" fill="#161b22"/>
<rect class="d" style="animation-delay:0.110s" x="76" y="103" width="12" height="12" rx="3" fill="#161b22"/>
<rect class="d" style="animation-delay:0.132s" x="76" y="118" width="12" height="12" rx="3" fill="#161b22"/>
<rect class="d" style="animation-delay:0.154s" x="76" y="133" width="12" height="12" rx="3" fill="#161b22"/>
<rect class="d" style="animation-delay:0.176s" x="76" y="148" width="12" height="12" rx="3" fill="#161b22"/>
<rect class="d" style="animation-delay:0.066s" x="91" y="58" width="12" height="12" rx="3" fill="#161b22"/>
<rect class="d" style="animation-delay:0.088s" x="91" y="73" width="12" height="12" rx="3" fill="#161b22"/>
<rect class="d" style="animation-delay:0.110s" x="91" y="88" width="12" height="12" rx="3" fill="#161b22"/>
<rect class="d" style="animation-delay:0.132s" x="91" y="103" width="12" height="12" rx="3" fill="#161b22"/>
<rect class="d" style="animation-delay:0.154s" x="91" y="118" width="12" height="12" rx="3" fill="#161b22"/>
<rect class="d" style="animation-delay:0.176s" x="91" y="133" width="12" height="12" rx="3" fill="#161b22"/>
<rect class="d" style="animation-delay:0.198s" x="91" y="148" width="12" height="12" rx="3" fill="#161b22"/>
<rect class="d" style="animation-delay:0.088s" x="106" y="58" width="12" height="12" rx="3" fill="#161b22"/>
<rect class="d" style="animation-delay:0.110s" x="106" y="73" width="12" height="12" rx="3" fill="#161b22"/>
<rect class="d" style="animation-delay:0.132s" x="106" y="88" width="12" height="12" rx="3" fill="#161b22"/>
<rect class="d" style="animation-delay:0.154s" x="106" y="103" width="12" height="12" rx="3" fill="#161b22"/>
<rect class="d" style="animation-delay:0.176s" x="106" y="118" width="12" height="12" rx="3" fill="#161b22"/>
<rect class="d" style="animation-delay:0.198s" x="106" y="133" width="12" height="12" rx="3" fill="#161b22"/>
<rect class="d" style="animation-delay:0.220s" x="106" y="148" width="12" height="12" rx="3" fill="#161b22"/>
<rect class="d" style="animation-delay:0.110s" x="121" y="58" width="12" height="12" rx="3" fill="#161b22"/>
<rect class="d" style="animation-delay:0.132s" x="121" y="73" width="12" height="12" rx="3" fill="#161b22"/>
<rect class="d" style="animation-delay:0.154s" x="121" y="88" width="12" height="12" rx="3" fill="#161b22"/>
<rect class="d" style="animation-delay:0.176s" x="121" y="103" width="12" height="12" rx="3" fill="#161b22"/>
<rect class="d" style="animation-delay:0.198s" x="121" y="118" width="12" height="12" rx="3" fill="#161b22"/>
<rect class="d" style="animation-delay:0.220s" x="121" y="133" width="12" height="12" rx="3" fill="#161b22"/>
<rect class="d" style="animation-delay:0.242s" x="121" y="148" width="12" height="12" rx="3" fill="#161b22"/>
<rect class="d" style="animation-delay:0.132s" x="136" y="58" width="12" height="12" rx="3" fill="#161b22"/>
<rect class="d" style="animation-delay:0.154s" x="136" y="73" width="12" height="12" rx="3" fill="#161b22"/>
<rect class="d" style="animation-delay:0.176s" x="136" y="88" width="12" height="12" rx="3" fill="#161b22"/>
<rect class="d" style="animation-delay:0.198s" x="136" y="103" width="12" height="12" rx="3" fill="#161b22"/>
<rect class="d" style="animation-delay:0.220s" x="136" y="118" width="12" height="12" rx="3" fill="#161b22"/>
<rect class="d" style="animation-delay:0.242s" x="136" y="133" width="12" height="12" rx="3" fill="#161b22"/>
<rect class="d" style="animation-delay:0.264s" x="136" y="148" width="12" height="12" rx="3" fill="#161b22"/>
<rect class="d" style="animation-delay:0.154s" x="151" y="58" width="12" height="12" rx="3" fill="#161b22"/>
<rect class="d" style="animation-delay:0.176s" x="151" y="73" width="12" height="12" rx="3" fill="#161b22"/>
<rect class="d" style="animation-delay:0.198s" x="151" y="88" width="12" height="12" rx="3" fill="#161b22"/>
<rect class="d" style="animation-delay:0.220s" x="151" y="103" width="12" height="12" rx="3" fill="#161b22"/>
<rect class="d" style="animation-delay:0.242s" x="151" y="118" width="12" height="12" rx="3" fill="#161b22"/>
<rect class="d" style="animation-delay:0.264s" x="151" y="133" width="12" height="12" rx="3" fill="#161b22"/>
<rect class="d" style="animation-delay:0.286s" x="151" y="148" width="12" height="12" rx="3" fill="#161b22"/>
<rect class="d" style="animation-delay:0.176s" x="166" y="58" width="12" height="12" rx="3" fill="#161b22"/>
<rect class="d" style="animation-delay:0.198s" x="166" y="73" width="12" height="12" rx="3" fill="#161b22"/>
<rect class="d" style="animation-delay:0.220s" x="166" y="88" width="12" height="12" rx="3" fill="#161b22"/>
<rect class="d" style="animation-delay:0.242s" x="166" y="103" width="12" height="12" rx="3" fill="#161b22"/>
<rect class="d" style="animation-delay:0.264s" x="166" y="118" width="12" height="12" rx="3" fill="#161b22"/>
<rect class="d" style="animation-delay:0.286s" x="166" y="133" width="12" height="12" rx="3" fill="#161b22"/>
<rect class="d" style="animation-delay:0.308s" x="166" y="148" width="12" height="12" rx="3" fill="#161b22"/>
<rect class="d" style="animation-delay:0.198s" x="181" y="58" width="12" height="12" rx="3" fill="#161b22"/>
<rect class="d" style="animation-delay:0.220s" x="181" y="73" width="12" height="12" rx="3" fill="#161b22"/>
<rect class="d" style="animation-delay:0.242s" x="181" y="88" width="12" height="12" rx="3" fill="#161b22"/>
<rect class="d" style="animation-delay:0.264s" x="181" y="103" width="12" height="12" rx="3" fill="#161b22"/>
<rect class="d" style="animation-delay:0.286s" x="181" y="118" width="12" height="12" rx="3" fill="#161b22"/>
<rect class="d" style="animation-delay:0.308s" x="181" y="133" width="12" height="12" rx="3" fill="#161b22"/>
<rect class="d" style="animation-delay:0.330s" x="181" y="148" width="12" height="12" rx="3" fill="#161b22"/>
<rect class="d" style="animation-delay:0.220s" x="196" y="58" width="12" height="12" rx="3" fill="#161b22"/>
<rect class="d" style="animation-delay:0.242s" x="196" y="73" width="12" height="12" rx="3" fill="#161b22"/>
<rect class="d" style="animation-delay:0.264s" x="196" y="88" width="12" height="12" rx="3" fill="#161b22"/>
<rect class="d" style="animation-delay:0.286s" x="196" y="103" width="12" height="12" rx="3" fill="#161b22"/>
<rect class="d" style="animation-delay:0.308s" x="196" y="118" width="12" height="12" rx="3" fill="#161b22"/>
<rect class="d" style="animation-delay:0.330s" x="196" y="133" width="12" height="12" rx="3" fill="#161b22"/>
<rect class="d" style="animation-delay:0.352s" x="196" y="148" width="12" height="12" rx="3" fill="#161b22"/>
<rect class="d" style="animation-delay:0.242s" x="211" y="58" width="12" height="12" rx="3" fill="#161b22"/>
<rect class="d" style="animation-delay:0.264s" x="211" y="73" width="12" height="12" rx="3" fill="#161b22"/>
<rect class="d" style="animation-delay:0.286s" x="211" y="88" width="12" height="12" rx="3" fill="#161b22"/>
<rect class="d" style="animation-delay:0.308s" x="211" y="103" width="12" height="12" rx="3" fill="#161b22"/>
<rect class="d" style="animation-delay:0.330s" x="211" y="118" width="12" height="12" rx="3" fill="#161b22"/>
<rect class="d" style="animation-delay:0.352s" x="211" y="133" width="12" height="12" rx="3" fill="#161b22"/>
<rect class="d" style="animation-delay:0.374s" x="211" y="148" width="12" height="12" rx="3" fill="#161b22"/>
<rect class="d" style="animation-delay:0.264s" x="226" y="58" width="12" height="12" rx="3" fill="#161b22"/>
<rect class="d" style="animation-delay:0.286s" x="226" y="73" width="12" height="12" rx="3" fill="#161b22"/>
<rect class="d" style="animation-delay:0.308s" x="226" y="88" width="12" height="12" rx="3" fill="#161b22"/>
<rect class="d" style="animation-delay:0.330s" x="226" y="103" width="12" height="12" rx="3" fill="#161b22"/>
<rect class="d" style="animation-delay:0.352s" x="226" y="118" width="12" height="12" rx="3" fill="#161b22"/>
<rect class="d" style="animation-delay:0.374s" x="226" y="133" width="12" height="12" rx="3" fill="#161b22"/>
<rect class="d" style="animation-delay:0.396s" x="226" y="148" width="12" height="12" rx="3" fill="#161b22"/>
<rect class="d" style="animation-delay:0.286s" x="241" y="58" width="12" height="12" rx="3" fill="#161b22"/>
<rect class="d" style="animation-delay:0.308s" x="241" y="73" width="12" height="12" rx="3" fill="#161b22"/>
<rect class="d" style="animation-delay:0.330s" x="241" y="88" width="12" height="12" rx="3" fill="#161b22"/>
<rect class="d" style="animation-delay:0.352s" x="241" y="103" width="12" height="12" rx="3" fill="#161b22"/>
<rect class="d" style="animation-delay:0.374s" x="241" y="118" width="12" height="12" rx="3" fill="#161b22"/>
<rect class="d" style="animation-delay:0.396s" x="241" y="133" width="12" height="12" rx="3" fill="#161b22"/>
<rect class="d" style="animation-delay:0.418s" x="241" y="148" width="12" height="12" rx="3" fill="#161b22"/>
<rect class="d" style="animation-delay:0.308s" x="256" y="58" width="12" height="12" rx="3" fill="#161b22"/>
<rect class="d" style="animation-delay:0.330s" x="256" y="73" width="12" height="12" rx="3" fill="#161b22"/>
<rect class="d" style="animation-delay:0.352s" x="256" y="88" width="12" height="12" rx="3" fill="#161b22"/>
<rect class="d" style="animation-delay:0.374s" x="256" y="103" width="12" height="12" rx="3" fill="#161b22"/>
<rect class="d" style="animation-delay:0.396s" x="256" y="118" width="12" height="12" rx="3" fill="#161b22"/>
<rect class="d" style="animation-delay:0.418s" x="256" y="133" width="12" height="12" rx="3" fill="#161b22"/>
<rect class="d" style="animation-delay:0.440s" x="256" y="148" width="12" height="12" rx="3" fill="#161b22"/>
<rect class="d" style="animation-delay:0.330s" x="271" y="58" width="12" height="12" rx="3" fill="#161b22"/>
<rect class="d" style="animation-delay:0.352s" x="271" y="73" width="12" height="12" rx="3" fill="#161b22"/>
<rect class="d" style="animation-delay:0.374s" x="271" y="88" width="12" height="12" rx="3" fill="#161b22"/>
<rect class="d" style="animation-delay:0.396s" x="271" y="103" width="12" height="12" rx="3" fill="#161b22"/>
<rect class="d" style="animation-delay:0.418s" x="271" y="118" width="12" height="12" rx="3" fill="#161b22"/>
<rect class="d" style="animation-delay:0.440s" x="271" y="133" width="12" height="12" rx="3" fill="#161b22"/>
<rect class="d" style="animation-delay:0.462s" x="271" y="148" width="12" height="12" rx="3" fill="#161b22"/>
<rect class="d" style="animation-delay:0.352s" x="286" y="58" width="12" height="12" rx="3" fill="#161b22"/>
<rect class="d" style="animation-delay:0.374s" x="286" y="73" width="12" height="12" rx="3" fill="#161b22"/>
<rect class="d" style="animation-delay:0.396s" x="286" y="88" width="12" height="12" rx="3" fill="#161b22"/>
<rect class="d" style="animation-delay:0.418s" x="286" y="103" width="12" height="12" rx="3" fill="#161b22"/>
<rect class="d" style="animation-delay:0.440s" x="286" y="118" width="12" height="12" rx="3" fill="#161b22"/>
<rect class="d" style="animation-delay:0.462s" x="286" y="133" width="12" height="12" rx="3" fill="#161b22"/>
<rect class="d" style="animation-delay:0.484s" x="286" y="148" width="12" height="12" rx="3" fill="#161b22"/>
<rect class="d" style="animation-delay:0.374s" x="301" y="58" width="12" height="12" rx="3" fill="#161b22"/>
<rect class="d" style="animation-delay:0.396s" x="301" y="73" width="12" height="12" rx="3" fill="#161b22"/>
<rect class="d" style="animation-delay:0.418s" x="301" y="88" width="12" height="12" rx="3" fill="#161b22"/>
<rect class="d" style="animation-delay:0.440s" x="301" y="103" width="12" height="12" rx="3" fill="#161b22"/>
<rect class="d" style="animation-delay:0.462s" x="301" y="118" width="12" height="12" rx="3" fill="#161b22"/>
<rect class="d" style="animation-delay:0.484s" x="301" y="133" width="12" height="12" rx="3" fill="#161b22"/>
<rect class="d" style="animation-delay:0.506s" x="301" y="148" width="12" height="12" rx="3" fill="#161b22"/>
<rect class="d" style="animation-delay:0.396s" x="316" y="58" width="12" height="12" rx="3" fill="#161b22"/>
<rect class="d" style="animation-delay:0.418s" x="316" y="73" width="12" height="12" rx="3" fill="#161b22"/>
<rect class="d" style="animation-delay:0.440s" x="316" y="88" width="12" height="12" rx="3" fill="#161b22"/>
<rect class="d" style="animation-delay:0.462s" x="316" y="103" width="12" height="12" rx="3" fill="#161b22"/>
<rect class="d" style="animation-delay:0.484s" x="316" y="118" width="12" height="12" rx="3" fill="#161b22"/>
<rect class="d" style="animation-delay:0.506s" x="316" y="133" width="12" height="12" rx="3" fill="#161b22"/>
<rect class="d" style="animation-delay:0.528s" x="316" y="148" width="12" height="12" rx="3" fill="#161b22"/>
<rect class="d" style="animation-delay:0.418s" x="331" y="58" width="12" height="12" rx="3" fill="#161b22"/>
<rect class="d" style="animation-delay:0.440s" x="331" y="73" width="12" height="12" rx="3" fill="#161b22"/>
<rect class="d" style="animation-delay:0.462s" x="331" y="88" width="12" height="12" rx="3" fill="#161b22"/>
<rect class="d" style="animation-delay:0.484s" x="331" y="103" width="12" height="12" rx="3" fill="#161b22"/>
<rect class="d" style="animation-delay:0.506s" x="331" y="118" width="12" height="12" rx="3" fill="#161b22"/>
<rect class="d" style="animation-delay:0.528s" x="331" y="133" width="12" height="12" rx="3" fill="#161b22"/>
<rect class="d" style="animation-delay:0.550s" x="331" y="148" width="12" height="12" rx="3" fill="#161b22"/>
<rect class="d" style="animation-delay:0.440s" x="346" y="58" width="12" height="12" rx="3" fill="#161b22"/>
<rect class="d" style="animation-delay:0.462s" x="346" y="73" width="12" height="12" rx="3" fill="#161b22"/>
<rect class="d" style="animation-delay:0.484s" x="346" y="88" width="12" height="12" rx="3" fill="#161b22"/>
<rect class="d" style="animation-delay:0.506s" x="346" y="103" width="12" height="12" rx="3" fill="#161b22"/>
<rect class="d" style="animation-delay:0.528s" x="346" y="118" width="12" height="12" rx="3" fill="#161b22"/>
<rect class="d" style="animation-delay:0.550s" x="346" y="133" width="12" height="12" rx="3" fill="#161b22"/>
<rect class="d" style="animation-delay:0.572s" x="346" y="148" width="12" height="12" rx="3" fill="#161b22"/>
<rect class="d" style="animation-delay:0.462s" x="361" y="58" width="12" height="12" rx="3" fill="#0e4429"/>
<rect class="d" style="animation-delay:0.484s" x="361" y="73" width="12" height="12" rx="3" fill="#161b22"/>
<rect class="d" style="animation-delay:0.506s" x="361" y="88" width="12" height="12" rx="3" fill="#161b22"/>
<rect class="d" style="animation-delay:0.528s" x="361" y="103" width="12" height="12" rx="3" fill="#161b22"/>
<rect class="d" style="animation-delay:0.550s" x="361" y="118" width="12" height="12" rx="3" fill="#161b22"/>
<rect class="d" style="animation-delay:0.572s" x="361" y="133" width="12" height="12" rx="3" fill="#161b22"/>
<rect class="d" style="animation-delay:0.594s" x="361" y="148" width="12" height="12" rx="3" fill="#161b22"/>
<rect class="d" style="animation-delay:0.484s" x="376" y="58" width="12" height="12" rx="3" fill="#161b22"/>
<rect class="d" style="animation-delay:0.506s" x="376" y="73" width="12" height="12" rx="3" fill="#161b22"/>
<rect class="d" style="animation-delay:0.528s" x="376" y="88" width="12" height="12" rx="3" fill="#161b22"/>
<rect class="d" style="animation-delay:0.550s" x="376" y="103" width="12" height="12" rx="3" fill="#161b22"/>
<rect class="d" style="animation-delay:0.572s" x="376" y="118" width="12" height="12" rx="3" fill="#161b22"/>
<rect class="d" style="animation-delay:0.594s" x="376" y="133" width="12" height="12" rx="3" fill="#161b22"/>
<rect class="d" style="animation-delay:0.616s" x="376" y="148" width="12" height="12" rx="3" fill="#161b22"/>
<rect class="d" style="animation-delay:0.506s" x="391" y="58" width="12" height="12" rx="3" fill="#161b22"/>
<rect class="d" style="animation-delay:0.528s" x="391" y="73" width="12" height="12" rx="3" fill="#161b22"/>
<rect class="d" style="animation-delay:0.550s" x="391" y="88" width="12" height="12" rx="3" fill="#161b22"/>
<rect class="d" style="animation-delay:0.572s" x="391" y="103" width="12" height="12" rx="3" fill="#161b22"/>
<rect class="d" style="animation-delay:0.594s" x="391" y="118" width="12" height="12" rx="3" fill="#161b22"/>
<rect class="d" style="animation-delay:0.616s" x="391" y="133" width="12" height="12" rx="3" fill="#161b22"/>
<rect class="d" style="animation-delay:0.638s" x="391" y="148" width="12" height="12" rx="3" fill="#161b22"/>
<rect class="d" style="animation-delay:0.528s" x="406" y="58" width="12" height="12" rx="3" fill="#161b22"/>
<rect class="d" style="animation-delay:0.550s" x="406" y="73" width="12" height="12" rx="3" fill="#161b22"/>
<rect class="d" style="animation-delay:0.572s" x="406" y="88" width="12" height="12" rx="3" fill="#161b22"/>
<rect class="d" style="animation-delay:0.594s" x="406" y="103" width="12" height="12" rx="3" fill="#161b22"/>
<rect class="d" style="animation-delay:0.616s" x="406" y="118" width="12" height="12" rx="3" fill="#161b22"/>
<rect class="d" style="animation-delay:0.638s" x="406" y="133" width="12" height="12" rx="3" fill="#161b22"/>
<rect class="d" style="animation-delay:0.660s" x="406" y="148" width="12" height="12" rx="3" fill="#161b22"/>
<rect class="d" style="animation-delay:0.550s" x="421" y="58" width="12" height="12" rx="3" fill="#161b22"/>
<rect class="d" style="animation-delay:0.572s" x="421" y="73" width="12" height="12" rx="3" fill="#161b22"/>
<rect class="d" style="animation-delay:0.594s" x="421" y="88" width="12" height="12" rx="3" fill="#161b22"/>
<rect class="d" style="animation-delay:0.616s" x="421" y="103" width="12" height="12" rx="3" fill="#161b22"/>
<rect class="d" style="animation-delay:0.638s" x="421" y="118" width="12" height="12" rx="3" fill="#161b22"/>
<rect class="d" style="animation-delay:0.660s" x="421" y="133" width="12" height="12" rx="3" fill="#161b22"/>
<rect class="d" style="animation-delay:0.682s" x="421" y="148" width="12" height="12" rx="3" fill="#161b22"/>
<rect class="d" style="animation-delay:0.572s" x="436" y="58" width="12" height="12" rx="3" fill="#161b22"/>
<rect class="d" style="animation-delay:0.594s" x="436" y="73" width="12" height="12" rx="3" fill="#161b22"/>
<rect class="d" style="animation-delay:0.616s" x="436" y="88" width="12" height="12" rx="3" fill="#161b22"/>
<rect class="d" style="animation-delay:0.638s" x="436" y="103" width="12" height="12" rx="3" fill="#161b22"/>
<rect class="d" style="animation-delay:0.660s" x="436" y="118" width="12" height="12" rx="3" fill="#161b22"/>
<rect class="d" style="animation-delay:0.682s" x="436" y="133" width="12" height="12" rx="3" fill="#161b22"/>
<rect class="d" style="animation-delay:0.704s" x="436" y="148" width="12" height="12" rx="3" fill="#161b22"/>
<rect class="d" style="animation-delay:0.594s" x="451" y="58" width="12" height="12" rx="3" fill="#161b22"/>
<rect class="d" style="animation-delay:0.616s" x="451" y="73" width="12" height="12" rx="3" fill="#161b22"/>
<rect class="d" style="animation-delay:0.638s" x="451" y="88" width="12" height="12" rx="3" fill="#161b22"/>
<rect class="d" style="animation-delay:0.660s" x="451" y="103" width="12" height="12" rx="3" fill="#161b22"/>
<rect class="d" style="animation-delay:0.682s" x="451" y="118" width="12" height="12" rx="3" fill="#161b22"/>
<rect class="d" style="animation-delay:0.704s" x="451" y="133" width="12" height="12" rx="3" fill="#161b22"/>
<rect class="d" style="animation-delay:0.726s" x="451" y="148" width="12" height="12" rx="3" fill="#161b22"/>
<rect class="d" style="animation-delay:0.616s" x="466" y="58" width="12" height="12" rx="3" fill="#161b22"/>
<rect class="d" style="animation-delay:0.638s" x="466" y="73" width="12" height="12" rx="3" fill="#161b22"/>
<rect class="d" style="animation-delay:0.660s" x="466" y="88" width="12" height="12" rx="3" fill="#161b22"/>
<rect class="d" style="animation-delay:0.682s" x="466" y="103" width="12" height="12" rx="3" fill="#161b22"/>
<rect class="d" style="animation-delay:0.704s" x="466" y="118" width="12" height="12" rx="3" fill="#161b22"/>
<rect class="d" style="animation-delay:0.726s" x="466" y="133" width="12" height="12" rx="3" fill="#161b22"/>
<rect class="d" style="animation-delay:0.748s" x="466" y="148" width="12" height="12" rx="3" fill="#161b22"/>
<rect class="d" style="animation-delay:0.638s" x="481" y="58" width="12" height="12" rx="3" fill="#0e4429"/>
<rect class="d" style="animation-delay:0.660s" x="481" y="73" width="12" height="12" rx="3" fill="#0e4429"/>
<rect class="d" style="animation-delay:0.682s" x="481" y="88" width="12" height="12" rx="3" fill="#161b22"/>
<rect class="d" style="animation-delay:0.704s" x="481" y="103" width="12" height="12" rx="3" fill="#161b22"/>
<rect class="d" style="animation-delay:0.726s" x="481" y="118" width="12" height="12" rx="3" fill="#161b22"/>
<rect class="d" style="animation-delay:0.748s" x="481" y="133" width="12" height="12" rx="3" fill="#161b22"/>
<rect class="d" style="animation-delay:0.770s" x="481" y="148" width="12" height="12" rx="3" fill="#161b22"/>
<rect class="d" style="animation-delay:0.660s" x="496" y="58" width="12" height="12" rx="3" fill="#161b22"/>
<rect class="d" style="animation-delay:0.682s" x="496" y="73" width="12" height="12" rx="3" fill="#161b22"/>
<rect class="d" style="animation-delay:0.704s" x="496" y="88" width="12" height="12" rx="3" fill="#161b22"/>
<rect class="d" style="animation-delay:0.726s" x="496" y="103" width="12" height="12" rx="3" fill="#161b22"/>
<rect class="d" style="animation-delay:0.748s" x="496" y="118" width="12" height="12" rx="3" fill="#161b22"/>
<rect class="d" style="animation-delay:0.770s" x="496" y="133" width="12" height="12" rx="3" fill="#161b22"/>
<rect class="d" style="animation-delay:0.792s" x="496" y="148" width="12" height="12" rx="3" fill="#161b22"/>
<rect class="d" style="animation-delay:0.682s" x="511" y="58" width="12" height="12" rx="3" fill="#161b22"/>
<rect class="d" style="animation-delay:0.704s" x="511" y="73" width="12" height="12" rx="3" fill="#161b22"/>
<rect class="d" style="animation-delay:0.726s" x="511" y="88" width="12" height="12" rx="3" fill="#161b22"/>
<rect class="d" style="animation-delay:0.748s" x="511" y="103" width="12" height="12" rx="3" fill="#161b22"/>
<rect class="d" style="animation-delay:0.770s" x="511" y="118" width="12" height="12" rx="3" fill="#0e4429"/>
<rect class="d" style="animation-delay:0.792s" x="511" y="133" width="12" height="12" rx="3" fill="#161b22"/>
<rect class="d" style="animation-delay:0.814s" x="511" y="148" width="12" height="12" rx="3" fill="#161b22"/>
<rect class="d" style="animation-delay:0.704s" x="526" y="58" width="12" height="12" rx="3" fill="#161b22"/>
<rect class="d" style="animation-delay:0.726s" x="526" y="73" width="12" height="12" rx="3" fill="#161b22"/>
<rect class="d" style="animation-delay:0.748s" x="526" y="88" width="12" height="12" rx="3" fill="#161b22"/>
<rect class="d" style="animation-delay:0.770s" x="526" y="103" width="12" height="12" rx="3" fill="#161b22"/>
<rect class="d" style="animation-delay:0.792s" x="526" y="118" width="12" height="12" rx="3" fill="#161b22"/>
<rect class="d" style="animation-delay:0.814s" x="526" y="133" width="12" height="12" rx="3" fill="#0e4429"/>
<rect class="d" style="animation-delay:0.836s" x="526" y="148" width="12" height="12" rx="3" fill="#0e4429"/>
<rect class="d" style="animation-delay:0.726s" x="541" y="58" width="12" height="12" rx="3" fill="#0e4429"/>
<rect class="d" style="animation-delay:0.748s" x="541" y="73" width="12" height="12" rx="3" fill="#161b22"/>
<rect class="d" style="animation-delay:0.770s" x="541" y="88" width="12" height="12" rx="3" fill="#161b22"/>
<rect class="d" style="animation-delay:0.792s" x="541" y="103" width="12" height="12" rx="3" fill="#161b22"/>
<rect class="d" style="animation-delay:0.814s" x="541" y="118" width="12" height="12" rx="3" fill="#161b22"/>
<rect class="d" style="animation-delay:0.836s" x="541" y="133" width="12" height="12" rx="3" fill="#161b22"/>
<rect class="d" style="animation-delay:0.858s" x="541" y="148" width="12" height="12" rx="3" fill="#0e4429"/>
<rect class="d" style="animation-delay:0.748s" x="556" y="58" width="12" height="12" rx="3" fill="#006d32"/>
<rect class="d" style="animation-delay:0.770s" x="556" y="73" width="12" height="12" rx="3" fill="#161b22"/>
<rect class="d" style="animation-delay:0.792s" x="556" y="88" width="12" height="12" rx="3" fill="#161b22"/>
<rect class="d" style="animation-delay:0.814s" x="556" y="103" width="12" height="12" rx="3" fill="#161b22"/>
<rect class="d" style="animation-delay:0.836s" x="556" y="118" width="12" height="12" rx="3" fill="#161b22"/>
<rect class="d" style="animation-delay:0.858s" x="556" y="133" width="12" height="12" rx="3" fill="#161b22"/>
<rect class="d" style="animation-delay:0.880s" x="556" y="148" width="12" height="12" rx="3" fill="#161b22"/>
<rect class="d" style="animation-delay:0.770s" x="571" y="58" width="12" height="12" rx="3" fill="#161b22"/>
<rect class="d" style="animation-delay:0.792s" x="571" y="73" width="12" height="12" rx="3" fill="#161b22"/>
<rect class="d" style="animation-delay:0.814s" x="571" y="88" width="12" height="12" rx="3" fill="#161b22"/>
<rect class="d" style="animation-delay:0.836s" x="571" y="103" width="12" height="12" rx="3" fill="#161b22"/>
<rect class="d" style="animation-delay:0.858s" x="571" y="118" width="12" height="12" rx="3" fill="#161b22"/>
<rect class="d" style="animation-delay:0.880s" x="571" y="133" width="12" height="12" rx="3" fill="#0e4429"/>
<rect class="d" style="animation-delay:0.902s" x="571" y="148" width="12" height="12" rx="3" fill="#0e4429"/>
<rect class="d" style="animation-delay:0.792s" x="586" y="58" width="12" height="12" rx="3" fill="#0e4429"/>
<rect class="d" style="animation-delay:0.814s" x="586" y="73" width="12" height="12" rx="3" fill="#0e4429"/>
<rect class="d" style="animation-delay:0.836s" x="586" y="88" width="12" height="12" rx="3" fill="#161b22"/>
<rect class="d" style="animation-delay:0.858s" x="586" y="103" width="12" height="12" rx="3" fill="#161b22"/>
<rect class="d" style="animation-delay:0.880s" x="586" y="118" width="12" height="12" rx="3" fill="#161b22"/>
<rect class="d" style="animation-delay:0.902s" x="586" y="133" width="12" height="12" rx="3" fill="#161b22"/>
<rect class="d" style="animation-delay:0.924s" x="586" y="148" width="12" height="12" rx="3" fill="#161b22"/>
<rect class="d" style="animation-delay:0.814s" x="601" y="58" width="12" height="12" rx="3" fill="#161b22"/>
<rect class="d" style="animation-delay:0.836s" x="601" y="73" width="12" height="12" rx="3" fill="#161b22"/>
<rect class="d" style="animation-delay:0.858s" x="601" y="88" width="12" height="12" rx="3" fill="#161b22"/>
<rect class="d" style="animation-delay:0.880s" x="601" y="103" width="12" height="12" rx="3" fill="#161b22"/>
<rect class="d" style="animation-delay:0.902s" x="601" y="118" width="12" height="12" rx="3" fill="#161b22"/>
<rect class="d" style="animation-delay:0.924s" x="601" y="133" width="12" height="12" rx="3" fill="#161b22"/>
<rect class="d" style="animation-delay:0.946s" x="601" y="148" width="12" height="12" rx="3" fill="#161b22"/>
<rect class="d" style="animation-delay:0.836s" x="616" y="58" width="12" height="12" rx="3" fill="#161b22"/>
<rect class="d" style="animation-delay:0.858s" x="616" y="73" width="12" height="12" rx="3" fill="#161b22"/>
<rect class="d" style="animation-delay:0.880s" x="616" y="88" width="12" height="12" rx="3" fill="#161b22"/>
<rect class="d" style="animation-delay:0.902s" x="616" y="103" width="12" height="12" rx="3" fill="#006d32"/>
<rect class="d" style="animation-delay:0.924s" x="616" y="118" width="12" height="12" rx="3" fill="#161b22"/>
<rect class="d" style="animation-delay:0.946s" x="616" y="133" width="12" height="12" rx="3" fill="#161b22"/>
<rect class="d" style="animation-delay:0.968s" x="616" y="148" width="12" height="12" rx="3" fill="#161b22"/>
<rect class="d" style="animation-delay:0.858s" x="631" y="58" width="12" height="12" rx="3" fill="#161b22"/>
<rect class="d" style="animation-delay:0.880s" x="631" y="73" width="12" height="12" rx="3" fill="#161b22"/>
<rect class="d" style="animation-delay:0.902s" x="631" y="88" width="12" height="12" rx="3" fill="#161b22"/>
<rect class="d" style="animation-delay:0.924s" x="631" y="103" width="12" height="12" rx="3" fill="#161b22"/>
<rect class="d" style="animation-delay:0.946s" x="631" y="118" width="12" height="12" rx="3" fill="#161b22"/>
<rect class="d" style="animation-delay:0.968s" x="631" y="133" width="12" height="12" rx="3" fill="#161b22"/>
<rect class="d" style="animation-delay:0.990s" x="631" y="148" width="12" height="12" rx="3" fill="#161b22"/>
<rect class="d" style="animation-delay:0.880s" x="646" y="58" width="12" height="12" rx="3" fill="#161b22"/>
<rect class="d" style="animation-delay:0.902s" x="646" y="73" width="12" height="12" rx="3" fill="#0e4429"/>
<rect class="d" style="animation-delay:0.924s" x="646" y="88" width="12" height="12" rx="3" fill="#161b22"/>
<rect class="d" style="animation-delay:0.946s" x="646" y="103" width="12" height="12" rx="3" fill="#161b22"/>
<rect class="d" style="animation-delay:0.968s" x="646" y="118" width="12" height="12" rx="3" fill="#161b22"/>
<rect class="d" style="animation-delay:0.990s" x="646" y="133" width="12" height="12" rx="3" fill="#0e4429"/>
<rect class="d" style="animation-delay:1.012s" x="646" y="148" width="12" height="12" rx="3" fill="#0e4429"/>
<rect class="d" style="animation-delay:0.902s" x="661" y="58" width="12" height="12" rx="3" fill="#161b22"/>
<rect class="d" style="animation-delay:0.924s" x="661" y="73" width="12" height="12" rx="3" fill="#161b22"/>
<rect class="d" style="animation-delay:0.946s" x="661" y="88" width="12" height="12" rx="3" fill="#0e4429"/>
<rect class="d" style="animation-delay:0.968s" x="661" y="103" width="12" height="12" rx="3" fill="#161b22"/>
<rect class="d" style="animation-delay:0.990s" x="661" y="118" width="12" height="12" rx="3" fill="#161b22"/>
<rect class="d" style="animation-delay:1.012s" x="661" y="133" width="12" height="12" rx="3" fill="#161b22"/>
<rect class="d" style="animation-delay:1.034s" x="661" y="148" width="12" height="12" rx="3" fill="#161b22"/>
<rect class="d" style="animation-delay:0.924s" x="676" y="58" width="12" height="12" rx="3" fill="#161b22"/>
<rect class="d" style="animation-delay:0.946s" x="676" y="73" width="12" height="12" rx="3" fill="#161b22"/>
<rect class="d" style="animation-delay:0.968s" x="676" y="88" width="12" height="12" rx="3" fill="#0e4429"/>
<rect class="d" style="animation-delay:0.990s" x="676" y="103" width="12" height="12" rx="3" fill="#0e4429"/>
<rect class="d" style="animation-delay:1.012s" x="676" y="118" width="12" height="12" rx="3" fill="#0e4429"/>
<rect class="d" style="animation-delay:1.034s" x="676" y="133" width="12" height="12" rx="3" fill="#161b22"/>
<rect class="d" style="animation-delay:1.056s" x="676" y="148" width="12" height="12" rx="3" fill="#161b22"/>
<rect class="d" style="animation-delay:0.946s" x="691" y="58" width="12" height="12" rx="3" fill="#161b22"/>
<rect class="d" style="animation-delay:0.968s" x="691" y="73" width="12" height="12" rx="3" fill="#161b22"/>
<rect class="d" style="animation-delay:0.990s" x="691" y="88" width="12" height="12" rx="3" fill="#0e4429"/>
<rect class="d" style="animation-delay:1.012s" x="691" y="103" width="12" height="12" rx="3" fill="#0e4429"/>
<rect class="d" style="animation-delay:1.034s" x="691" y="118" width="12" height="12" rx="3" fill="#0e4429"/>
<rect class="d" style="animation-delay:1.056s" x="691" y="133" width="12" height="12" rx="3" fill="#006d32"/>
<rect class="d" style="animation-delay:1.078s" x="691" y="148" width="12" height="12" rx="3" fill="#26a641"/>
<rect class="d" style="animation-delay:0.968s" x="706" y="58" width="12" height="12" rx="3" fill="#0e4429"/>
<rect class="d" style="animation-delay:0.990s" x="706" y="73" width="12" height="12" rx="3" fill="#006d32"/>
<rect class="d" style="animation-delay:1.012s" x="706" y="88" width="12" height="12" rx="3" fill="#0e4429"/>
<rect class="d" style="animation-delay:1.034s" x="706" y="103" width="12" height="12" rx="3" fill="#161b22"/>
<rect class="d" style="animation-delay:1.056s" x="706" y="118" width="12" height="12" rx="3" fill="#161b22"/>
<rect class="d" style="animation-delay:1.078s" x="706" y="133" width="12" height="12" rx="3" fill="#161b22"/>
<rect class="d" style="animation-delay:1.100s" x="706" y="148" width="12" height="12" rx="3" fill="#0e4429"/>
<rect class="d" style="animation-delay:0.990s" x="721" y="58" width="12" height="12" rx="3" fill="#0e4429"/>
<rect class="d" style="animation-delay:1.012s" x="721" y="73" width="12" height="12" rx="3" fill="#006d32"/>
<rect class="d" style="animation-delay:1.034s" x="721" y="88" width="12" height="12" rx="3" fill="#161b22"/>
<rect class="d" style="animation-delay:1.056s" x="721" y="103" width="12" height="12" rx="3" fill="#0e4429"/>
<rect class="d" style="animation-delay:1.078s" x="721" y="118" width="12" height="12" rx="3" fill="#0e4429"/>
<rect class="d" style="animation-delay:1.100s" x="721" y="133" width="12" height="12" rx="3" fill="#161b22"/>
<rect class="d" style="animation-delay:1.122s" x="721" y="148" width="12" height="12" rx="3" fill="#0e4429"/>
<rect class="d" style="animation-delay:1.012s" x="736" y="58" width="12" height="12" rx="3" fill="#0e4429"/>
<rect class="d" style="animation-delay:1.034s" x="736" y="73" width="12" height="12" rx="3" fill="#0e4429"/>
<rect class="d" style="animation-delay:1.056s" x="736" y="88" width="12" height="12" rx="3" fill="#0e4429"/>
<rect class="d" style="animation-delay:1.078s" x="736" y="103" width="12" height="12" rx="3" fill="#0e4429"/>
<rect class="d" style="animation-delay:1.100s" x="736" y="118" width="12" height="12" rx="3" fill="#006d32"/>
<rect class="d" style="animation-delay:1.122s" x="736" y="133" width="12" height="12" rx="3" fill="#0e4429"/>
<rect class="d" style="animation-delay:1.144s" x="736" y="148" width="12" height="12" rx="3" fill="#0e4429"/>
<rect class="d" style="animation-delay:1.034s" x="751" y="58" width="12" height="12" rx="3" fill="#006d32"/>
<rect class="d" style="animation-delay:1.056s" x="751" y="73" width="12" height="12" rx="3" fill="#006d32"/>
<rect class="d" style="animation-delay:1.078s" x="751" y="88" width="12" height="12" rx="3" fill="#0e4429"/>
<rect class="d" style="animation-delay:1.100s" x="751" y="103" width="12" height="12" rx="3" fill="#0e4429"/>
<rect class="d" style="animation-delay:1.122s" x="751" y="118" width="12" height="12" rx="3" fill="#0e4429"/>
<rect class="d" style="animation-delay:1.144s" x="751" y="133" width="12" height="12" rx="3" fill="#0e4429"/>
<rect class="d" style="animation-delay:1.166s" x="751" y="148" width="12" height="12" rx="3" fill="#0e4429"/>
<rect class="d" style="animation-delay:1.056s" x="766" y="58" width="12" height="12" rx="3" fill="#0e4429"/>
<rect class="d" style="animation-delay:1.078s" x="766" y="73" width="12" height="12" rx="3" fill="#0e4429"/>
<rect class="d" style="animation-delay:1.100s" x="766" y="88" width="12" height="12" rx="3" fill="#0e4429"/>
<rect class="d" style="animation-delay:1.122s" x="766" y="103" width="12" height="12" rx="3" fill="#0e4429"/>
<rect class="d" style="animation-delay:1.144s" x="766" y="118" width="12" height="12" rx="3" fill="#0e4429"/>
<rect class="d" style="animation-delay:1.166s" x="766" y="133" width="12" height="12" rx="3" fill="#0e4429"/>
<rect class="d" style="animation-delay:1.188s" x="766" y="148" width="12" height="12" rx="3" fill="#0e4429"/>
<rect class="d" style="animation-delay:1.078s" x="781" y="58" width="12" height="12" rx="3" fill="#0e4429"/>
<rect class="d" style="animation-delay:1.100s" x="781" y="73" width="12" height="12" rx="3" fill="#0e4429"/>
<rect class="d" style="animation-delay:1.122s" x="781" y="88" width="12" height="12" rx="3" fill="#0e4429"/>
<rect class="d" style="animation-delay:1.144s" x="781" y="103" width="12" height="12" rx="3" fill="#0e4429"/>
<rect class="d" style="animation-delay:1.166s" x="781" y="118" width="12" height="12" rx="3" fill="#0e4429"/>
<rect class="d" style="animation-delay:1.188s" x="781" y="133" width="12" height="12" rx="3" fill="#0e4429"/>
<rect class="d" style="animation-delay:1.210s" x="781" y="148" width="12" height="12" rx="3" fill="#0e4429"/>
<rect class="d" style="animation-delay:1.100s" x="796" y="58" width="12" height="12" rx="3" fill="#0e4429"/>
<rect class="d" style="animation-delay:1.122s" x="796" y="73" width="12" height="12" rx="3" fill="#0e4429"/>
<rect class="d" style="animation-delay:1.144s" x="796" y="88" width="12" height="12" rx="3" fill="#0e4429"/>
<rect class="d" style="animation-delay:1.166s" x="796" y="103" width="12" height="12" rx="3" fill="#0e4429"/>
<rect class="d" style="animation-delay:1.188s" x="796" y="118" width="12" height="12" rx="3" fill="#69f0a0"/>
<rect class="d" style="animation-delay:1.210s" x="796" y="133" width="12" height="12" rx="3" fill="#0e4429"/>
<rect class="d" style="animation-delay:1.232s" x="796" y="148" width="12" height="12" rx="3" fill="#0e4429"/>
<rect class="d" style="animation-delay:1.122s" x="811" y="58" width="12" height="12" rx="3" fill="#0e4429"/>
<rect class="d" style="animation-delay:1.144s" x="811" y="73" width="12" height="12" rx="3" fill="#0e4429"/>
<rect class="d" style="animation-delay:1.166s" x="811" y="88" width="12" height="12" rx="3" fill="#0e4429"/>
<rect class="d" style="animation-delay:1.188s" x="811" y="103" width="12" height="12" rx="3" fill="#0e4429"/>
<rect class="d" style="animation-delay:1.210s" x="811" y="118" width="12" height="12" rx="3" fill="#0e4429"/>
<rect class="d" style="animation-delay:1.232s" x="811" y="133" width="12" height="12" rx="3" fill="#0e4429"/>
<rect class="d" style="animation-delay:1.254s" x="811" y="148" width="12" height="12" rx="3" fill="#0e4429"/>
<rect class="d" style="animation-delay:1.144s" x="826" y="58" width="12" height="12" rx="3" fill="#0e4429"/>
<rect class="d" style="animation-delay:1.166s" x="826" y="73" width="12" height="12" rx="3" fill="#0e4429"/>
<rect class="d" style="animation-delay:1.188s" x="826" y="88" width="12" height="12" rx="3" fill="#0e4429"/>
<rect class="d" style="animation-delay:1.210s" x="826" y="103" width="12" height="12" rx="3" fill="#0e4429"/>
<rect class="d" style="animation-delay:1.232s" x="826" y="118" width="12" height="12" rx="3" fill="#0e4429"/>
<rect class="d" style="animation-delay:1.254s" x="826" y="133" width="12" height="12" rx="3" fill="#0e4429"/>
<rect class="d" style="animation-delay:1.276s" x="826" y="148" width="12" height="12" rx="3" fill="#161b22"/>
<text class="f" x="46" y="185" fill="#8b949e"><tspan fill="#00ff41">&#9656;</tspan> 315 contributions in the last year · streak 49d (longest 49d) · best day 33</text>
<text class="f" x="626" y="185" fill="#8b949e">Less</text>
<rect class="f" x="660" y="175" width="12" height="12" rx="3" fill="#161b22"/>
<rect class="f" x="677" y="175" width="12" height="12" rx="3" fill="#0e4429"/>
<rect class="f" x="694" y="175" width="12" height="12" rx="3" fill="#006d32"/>
<rect class="f" x="711" y="175" width="12" height="12" rx="3" fill="#26a641"/>
<rect class="f" x="728" y="175" width="12" height="12" rx="3" fill="#39d353"/>
<rect class="f" x="745" y="175" width="12" height="12" rx="3" fill="#69f0a0"/>
<text class="f" x="768" y="185" fill="#8b949e">More</text>
</svg>